<?xml version="1.0" encoding="utf-8"?>
<!-- Generator: Adobe Illustrator 19.0.0, SVG Export Plug-In . SVG Version: 6.00 Build 0)  -->
<svg version="1.1" xmlns="http://www.w3.org/2000/svg" xmlns:xlink="http://www.w3.org/1999/xlink" x="0px" y="0px"
	 viewBox="0 0 600 600" style="enable-background:new 0 0 600 600;" xml:space="preserve">
<style type="text/css">
	.st0{fill:url(#XMLID_20_);}
	.st1{fill:#BCBEC0;}
	.st2{fill:#FFFFFF;}
</style>
<g id="Layer_2">
	<g id="Layer_1">
		<g id="XMLID_19_">
			<path id="XMLID_25_" d="M179.6,94.4v52.3h58.9v313.3h-36.8c3.8,5.9,6.1,13.1,8.1,19.4c3.4,10.8,5.8,21.9,8.7,32.9h149.9v-52.3
				h-59.6V322.6h150.2v-52.3H308.7V146.6H483v73.6h57.5V94.4H179.6z"/>
		</g>
	</g>
</g>
<g id="Layer_3">
	<g id="XMLID_17_">
		<linearGradient id="XMLID_20_" gradientUnits="userSpaceOnUse" x1="29.1961" y1="153.5117" x2="279.1961" y2="153.5117">
			<stop  offset="0" style="stop-color:#FFF33B"/>
			<stop  offset="5.948725e-002" style="stop-color:#FFE029"/>
			<stop  offset="0.1303" style="stop-color:#FFD218"/>
			<stop  offset="0.2032" style="stop-color:#FEC90F"/>
			<stop  offset="0.2809" style="stop-color:#FDC70C"/>
			<stop  offset="0.6685" style="stop-color:#F3903F"/>
			<stop  offset="0.8876" style="stop-color:#ED683C"/>
			<stop  offset="1" style="stop-color:#E93E3A"/>
		</linearGradient>
		<path id="XMLID_32_" class="st0" d="M270.9,202.1c0-0.2-0.1-0.4-0.1-0.5c0-0.6,0.1-1.2,0.3-1.7c0.6-10.4,5.9-20.6,7.5-31.2
			c0.9-5.9,0.6-12-0.2-17.9c-0.9-6.9-2.5-13.8-5.7-19.8c-9.3-17.9-29.4-25.2-48-29.9c-30.9-7.9-62.4-12.9-94.1-14.9
			c13.4,7.3,25.6,16.9,36.2,28.2c2.3,2.5,4.6,6.6,2.3,9.1c-27.4-1.6-52.7-17.8-80.2-19.2c-12.2-0.6-24.4,1.8-35.6,7
			c-7.4,3.4-14.5,8.2-19.2,15.2c-4.7,7-6.6,16.5-3.5,24.5c0.5,1.2,1.1,2.4,2.3,2.9c0.9,0.4,2,0.1,3-0.1c16.2-4,33.3-3.2,49.1,2.1
			c-7.1,1.9-14.2,3.7-21.3,5.6c-4.8,1.3-9.9,2.7-13.5,6.4s-4.9,10.5-1.4,14.3c11.6-6,25.4-9.6,37.3-4.4
			c18.7,8.2,25.9,34.3,44.3,43.2l140.4-13.6v-3.7c0-0.1,0-0.1,0-0.2c0-0.2,0-0.4,0-0.7C270.9,202.6,270.9,202.4,270.9,202.1z"/>
		<g id="XMLID_4_">
			<g id="XMLID_3_">
				<path id="XMLID_15_" class="st1" d="M270.9,201.6c0,0.2,0,0.4,0,0.6c0,0.2,0,0.4,0,0.7c0,0.2,0,0.4,0,0.6c0,0.1,0,0.1,0,0.2v3.8
					l-8.2,304.8l-43.1,6.2l-90.9-297.6l142.3-20C270.9,201.2,270.9,201.4,270.9,201.6z"/>
			</g>
			<g id="XMLID_16_">
			</g>
		</g>
		<g id="XMLID_2_">
			<line id="XMLID_35_" class="st2" x1="137.3" y1="249.2" x2="270.2" y2="230.7"/>
			<g id="XMLID_29_">
				<path id="XMLID_34_" class="st2" d="M139.2,256.4c38.8-5.4,77.6-10.8,116.5-16.3c5.5-0.8,11-1.5,16.5-2.3c4-0.6,6.2-5.7,5.2-9.2
					c-1.2-4.3-5.2-5.8-9.2-5.2c-38.8,5.4-77.6,10.8-116.5,16.3c-5.5,0.8-11,1.5-16.5,2.3c-4,0.6-6.2,5.7-5.2,9.2
					C131.2,255.5,135.2,257,139.2,256.4L139.2,256.4z"/>
			</g>
		</g>
		<g id="XMLID_14_">
			<line id="XMLID_43_" class="st2" x1="140.3" y1="272.9" x2="273.2" y2="254.3"/>
			<g id="XMLID_38_">
				<path id="XMLID_42_" class="st2" d="M142.2,280.1c38.8-5.4,77.6-10.8,116.5-16.3c5.5-0.8,11-1.5,16.5-2.3c4-0.6,6.2-5.7,5.2-9.2
					c-1.2-4.3-5.2-5.8-9.2-5.2c-38.8,5.4-77.6,10.8-116.5,16.3c-5.5,0.8-11,1.5-16.5,2.3c-4,0.6-6.2,5.7-5.2,9.2
					C134.2,279.2,138.2,280.7,142.2,280.1L142.2,280.1z"/>
			</g>
		</g>
	</g>
</g>
</svg>
